<svg width="44" height="45" viewBox="0 0 44 45" fill="none" xmlns="http://www.w3.org/2000/svg">
<path d="M5.5 33.5V22.5C5.5 18.1239 7.23839 13.9271 10.3327 10.8327C13.4271 7.73839 17.6239 6 22 6C26.3761 6 30.5729 7.73839 33.6673 10.8327C36.7616 13.9271 38.5 18.1239 38.5 22.5V33.5" stroke="#333E48" stroke-width="1.5" stroke-linecap="round" stroke-linejoin="round"/>
<path d="M38.5 35.3334C38.5 36.3059 38.1137 37.2385 37.4261 37.9261C36.7384 38.6138 35.8058 39.0001 34.8333 39.0001H33C32.0275 39.0001 31.0949 38.6138 30.4073 37.9261C29.7196 37.2385 29.3333 36.3059 29.3333 35.3334V29.8334C29.3333 28.861 29.7196 27.9283 30.4073 27.2407C31.0949 26.5531 32.0275 26.1667 33 26.1667H38.5V35.3334ZM5.5 35.3334C5.5 36.3059 5.88631 37.2385 6.57394 37.9261C7.26158 38.6138 8.19421 39.0001 9.16667 39.0001H11C11.9725 39.0001 12.9051 38.6138 13.5927 37.9261C14.2804 37.2385 14.6667 36.3059 14.6667 35.3334V29.8334C14.6667 28.861 14.2804 27.9283 13.5927 27.2407C12.9051 26.5531 11.9725 26.1667 11 26.1667H5.5V35.3334Z" stroke="#333E48" stroke-width="1.5" stroke-linecap="round" stroke-linejoin="round"/>
</svg>
