<svg width="185" height="41" viewBox="0 0 185 41" fill="none" xmlns="http://www.w3.org/2000/svg">
<circle cx="180.541" cy="36.1759" r="4.32432" fill="#FF3D3D"/>
<path d="M6.87891 35.9316C7.76896 36.6874 8.73197 37.3641 9.76792 37.9617C12.8018 39.6536 16.1502 40.4996 19.8131 40.4996C23.4759 40.4996 26.8058 39.6536 29.8027 37.9617C32.8366 36.2329 35.223 33.8421 36.9619 30.7893C38.7379 27.7364 39.6258 24.2973 39.6258 20.472C39.6258 16.6467 38.7564 13.226 37.0174 10.2099C36.482 9.26995 35.8852 8.39447 35.227 7.5835L28.5694 14.2411C29.5026 15.9655 29.9692 18.0425 29.9692 20.472C29.9692 23.8927 29.0442 26.6145 27.1943 28.6375C25.3444 30.6605 22.884 31.672 19.8131 31.672C17.1933 31.672 15.0205 30.9533 13.2946 29.5159L6.87891 35.9316Z" fill="white"/>
<path d="M25.7146 10.9805C24.1118 9.84178 22.1445 9.27242 19.8128 9.27242C16.7049 9.27242 14.226 10.2839 12.3761 12.3069C10.5631 14.2931 9.65665 17.0149 9.65665 20.4724C9.65665 22.5821 10.0015 24.426 10.6911 26.004L3.91928 32.7758C3.45055 32.1482 3.01359 31.4862 2.60841 30.7897C0.869469 27.7368 0 24.2977 0 20.4724C0 16.6471 0.869469 13.2264 2.60841 10.2103C4.38434 7.15747 6.77076 4.78506 9.76765 3.09311C12.8015 1.36437 16.1499 0.5 19.8128 0.5C23.5127 0.5 26.861 1.36437 29.8579 3.09311C30.6577 3.5391 31.4124 4.03238 32.1222 4.57295L25.7146 10.9805Z" fill="#FF3D3D"/>
<path d="M62.7151 8.98005C66.2351 8.98005 69.0218 10.1534 71.0751 12.5C73.1651 14.8467 74.2101 18.0734 74.2101 22.18V40H64.8051V23.28C64.8051 21.2267 64.2551 19.6317 63.1551 18.495C62.0918 17.3217 60.6618 16.735 58.8651 16.735C56.9585 16.735 55.4368 17.34 54.3001 18.55C53.2001 19.76 52.6501 21.4834 52.6501 23.72V40H43.2451V9.31005H52.6501V14.92C53.5301 13.0867 54.8318 11.6384 56.5551 10.575C58.3151 9.51171 60.3685 8.98005 62.7151 8.98005Z" fill="white"/>
<path d="M91.5781 8.92505C95.4648 8.92505 98.5631 9.89672 100.873 11.84C103.22 13.7834 104.686 16.35 105.273 19.54H96.4731C96.2164 18.2934 95.6298 17.3217 94.7131 16.625C93.8331 15.8917 92.7148 15.525 91.3581 15.525C90.2948 15.525 89.4881 15.7634 88.9381 16.24C88.3881 16.68 88.1131 17.3217 88.1131 18.165C88.1131 19.1184 88.6081 19.8334 89.5981 20.31C90.6248 20.7867 92.2198 21.2634 94.3831 21.74C96.7298 22.29 98.6548 22.8584 100.158 23.445C101.661 23.995 102.963 24.9117 104.063 26.195C105.163 27.4784 105.713 29.2017 105.713 31.365C105.713 33.125 105.236 34.6834 104.283 36.04C103.33 37.3967 101.955 38.46 100.158 39.23C98.3614 40 96.2348 40.385 93.7781 40.385C89.6348 40.385 86.3164 39.4684 83.8231 37.635C81.3298 35.8017 79.8081 33.18 79.2581 29.77H88.3331C88.4798 31.09 89.0298 32.0984 89.9831 32.795C90.9731 33.4917 92.2381 33.84 93.7781 33.84C94.8414 33.84 95.6481 33.6017 96.1981 33.125C96.7481 32.6117 97.0231 31.9517 97.0231 31.145C97.0231 30.0817 96.5098 29.33 95.4831 28.89C94.4931 28.4134 92.8614 27.9184 90.5881 27.405C88.3148 26.9284 86.4448 26.415 84.9781 25.865C83.5114 25.315 82.2464 24.435 81.1831 23.225C80.1198 21.9784 79.5881 20.2917 79.5881 18.165C79.5881 15.415 80.6331 13.1967 82.7231 11.51C84.8131 9.78672 87.7648 8.92505 91.5781 8.92505Z" fill="white"/>
<path d="M141.446 9.31005V40H131.986V34.445C131.106 36.2417 129.786 37.6717 128.026 38.735C126.303 39.7984 124.286 40.33 121.976 40.33C118.456 40.33 115.651 39.1567 113.561 36.81C111.508 34.4634 110.481 31.2367 110.481 27.13V9.31005H119.831V25.975C119.831 28.065 120.363 29.6967 121.426 30.87C122.526 32.0067 123.993 32.575 125.826 32.575C127.733 32.575 129.236 31.97 130.336 30.76C131.436 29.55 131.986 27.8267 131.986 25.59V9.31005H141.446Z" fill="white"/>
<path d="M159.093 8.92505C162.979 8.92505 166.078 9.89672 168.388 11.84C170.734 13.7834 172.201 16.35 172.788 19.54H163.988C163.731 18.2934 163.144 17.3217 162.228 16.625C161.348 15.8917 160.229 15.525 158.873 15.525C157.809 15.525 157.003 15.7634 156.453 16.24C155.903 16.68 155.628 17.3217 155.628 18.165C155.628 19.1184 156.123 19.8334 157.113 20.31C158.139 20.7867 159.734 21.2634 161.898 21.74C164.244 22.29 166.169 22.8584 167.673 23.445C169.176 23.995 170.478 24.9117 171.578 26.195C172.678 27.4784 173.228 29.2017 173.228 31.365C173.228 33.125 172.751 34.6834 171.798 36.04C170.844 37.3967 169.469 38.46 167.673 39.23C165.876 40 163.749 40.385 161.293 40.385C157.149 40.385 153.831 39.4684 151.338 37.635C148.844 35.8017 147.323 33.18 146.773 29.77H155.848C155.994 31.09 156.544 32.0984 157.498 32.795C158.488 33.4917 159.753 33.84 161.293 33.84C162.356 33.84 163.163 33.6017 163.713 33.125C164.263 32.6117 164.538 31.9517 164.538 31.145C164.538 30.0817 164.024 29.33 162.998 28.89C162.008 28.4134 160.376 27.9184 158.103 27.405C155.829 26.9284 153.959 26.415 152.493 25.865C151.026 25.315 149.761 24.435 148.698 23.225C147.634 21.9784 147.103 20.2917 147.103 18.165C147.103 15.415 148.148 13.1967 150.238 11.51C152.328 9.78672 155.279 8.92505 159.093 8.92505Z" fill="white"/>
</svg>
