<svg width="185" height="41" viewBox="0 0 185 41" fill="none" xmlns="http://www.w3.org/2000/svg">
<circle cx="180.541" cy="36.1759" r="4.32432" fill="#FF3D3D"/>
<path d="M6.87866 35.9321C7.76872 36.6879 8.73173 37.3646 9.76768 37.9622C12.8016 39.6541 16.15 40.5001 19.8128 40.5001C23.4757 40.5001 26.8056 39.6541 29.8025 37.9622C32.8363 36.2334 35.2228 33.8426 36.9617 30.7897C38.7376 27.7369 39.6256 24.2978 39.6256 20.4725C39.6256 16.6472 38.7561 13.2265 37.0172 10.2104C36.4818 9.27044 35.885 8.39496 35.2268 7.58398L28.5692 14.2416C29.5024 15.966 29.969 18.043 29.969 20.4725C29.969 23.8932 29.044 26.615 27.194 28.638C25.3441 30.661 22.8837 31.6725 19.8128 31.6725C17.1931 31.6725 15.0203 30.9538 13.2943 29.5164L6.87866 35.9321Z" fill="#333E48"/>
<path d="M25.7146 10.9805C24.1118 9.84178 22.1445 9.27242 19.8128 9.27242C16.7049 9.27242 14.226 10.2839 12.3761 12.3069C10.5631 14.2931 9.65665 17.0149 9.65665 20.4724C9.65665 22.5821 10.0015 24.426 10.6911 26.004L3.91928 32.7758C3.45055 32.1482 3.01359 31.4862 2.60841 30.7897C0.869469 27.7368 0 24.2977 0 20.4724C0 16.6471 0.869469 13.2264 2.60841 10.2103C4.38434 7.15747 6.77076 4.78506 9.76765 3.09311C12.8015 1.36437 16.1499 0.5 19.8128 0.5C23.5127 0.5 26.861 1.36437 29.8579 3.09311C30.6577 3.5391 31.4124 4.03238 32.1222 4.57295L25.7146 10.9805Z" fill="#FF3D3D"/>
<path d="M62.7151 8.98078C66.2351 8.98078 69.0218 10.1541 71.0751 12.5008C73.1651 14.8474 74.2101 18.0741 74.2101 22.1808V40.0008H64.8051V23.2808C64.8051 21.2274 64.2551 19.6324 63.1551 18.4958C62.0918 17.3224 60.6618 16.7358 58.8651 16.7358C56.9585 16.7358 55.4368 17.3408 54.3001 18.5508C53.2001 19.7608 52.6501 21.4841 52.6501 23.7208V40.0008H43.2451V9.31078H52.6501V14.9208C53.5301 13.0874 54.8318 11.6391 56.5551 10.5758C58.3151 9.51245 60.3685 8.98078 62.7151 8.98078Z" fill="#333E48"/>
<path d="M91.5781 8.92578C95.4648 8.92578 98.5631 9.89745 100.873 11.8408C103.22 13.7841 104.686 16.3508 105.273 19.5408H96.4731C96.2164 18.2941 95.6298 17.3224 94.7131 16.6258C93.8331 15.8924 92.7148 15.5258 91.3581 15.5258C90.2948 15.5258 89.4881 15.7641 88.9381 16.2408C88.3881 16.6808 88.1131 17.3224 88.1131 18.1658C88.1131 19.1191 88.6081 19.8341 89.5981 20.3108C90.6248 20.7874 92.2198 21.2641 94.3831 21.7408C96.7298 22.2908 98.6548 22.8591 100.158 23.4458C101.661 23.9958 102.963 24.9124 104.063 26.1958C105.163 27.4791 105.713 29.2024 105.713 31.3658C105.713 33.1258 105.236 34.6841 104.283 36.0408C103.33 37.3974 101.955 38.4608 100.158 39.2308C98.3614 40.0008 96.2348 40.3858 93.7781 40.3858C89.6348 40.3858 86.3164 39.4691 83.8231 37.6358C81.3298 35.8024 79.8081 33.1808 79.2581 29.7708H88.3331C88.4798 31.0908 89.0298 32.0991 89.9831 32.7958C90.9731 33.4924 92.2381 33.8408 93.7781 33.8408C94.8414 33.8408 95.6481 33.6024 96.1981 33.1258C96.7481 32.6124 97.0231 31.9524 97.0231 31.1458C97.0231 30.0824 96.5098 29.3308 95.4831 28.8908C94.4931 28.4141 92.8614 27.9191 90.5881 27.4058C88.3148 26.9291 86.4448 26.4158 84.9781 25.8658C83.5114 25.3158 82.2464 24.4358 81.1831 23.2258C80.1198 21.9791 79.5881 20.2924 79.5881 18.1658C79.5881 15.4158 80.6331 13.1974 82.7231 11.5108C84.8131 9.78745 87.7648 8.92578 91.5781 8.92578Z" fill="#333E48"/>
<path d="M141.446 9.31078V40.0008H131.986V34.4458C131.106 36.2424 129.786 37.6724 128.026 38.7358C126.303 39.7991 124.286 40.3308 121.976 40.3308C118.456 40.3308 115.651 39.1574 113.561 36.8108C111.508 34.4641 110.481 31.2374 110.481 27.1308V9.31078H119.831V25.9758C119.831 28.0658 120.363 29.6974 121.426 30.8708C122.526 32.0074 123.993 32.5758 125.826 32.5758C127.733 32.5758 129.236 31.9708 130.336 30.7608C131.436 29.5508 131.986 27.8274 131.986 25.5908V9.31078H141.446Z" fill="#333E48"/>
<path d="M159.093 8.92578C162.979 8.92578 166.078 9.89745 168.388 11.8408C170.734 13.7841 172.201 16.3508 172.788 19.5408H163.988C163.731 18.2941 163.144 17.3224 162.228 16.6258C161.348 15.8924 160.229 15.5258 158.873 15.5258C157.809 15.5258 157.003 15.7641 156.453 16.2408C155.903 16.6808 155.628 17.3224 155.628 18.1658C155.628 19.1191 156.123 19.8341 157.113 20.3108C158.139 20.7874 159.734 21.2641 161.898 21.7408C164.244 22.2908 166.169 22.8591 167.673 23.4458C169.176 23.9958 170.478 24.9124 171.578 26.1958C172.678 27.4791 173.228 29.2024 173.228 31.3658C173.228 33.1258 172.751 34.6841 171.798 36.0408C170.844 37.3974 169.469 38.4608 167.673 39.2308C165.876 40.0008 163.749 40.3858 161.293 40.3858C157.149 40.3858 153.831 39.4691 151.338 37.6358C148.844 35.8024 147.323 33.1808 146.773 29.7708H155.848C155.994 31.0908 156.544 32.0991 157.498 32.7958C158.488 33.4924 159.753 33.8408 161.293 33.8408C162.356 33.8408 163.163 33.6024 163.713 33.1258C164.263 32.6124 164.538 31.9524 164.538 31.1458C164.538 30.0824 164.024 29.3308 162.998 28.8908C162.008 28.4141 160.376 27.9191 158.103 27.4058C155.829 26.9291 153.959 26.4158 152.493 25.8658C151.026 25.3158 149.761 24.4358 148.698 23.2258C147.634 21.9791 147.103 20.2924 147.103 18.1658C147.103 15.4158 148.148 13.1974 150.238 11.5108C152.328 9.78745 155.279 8.92578 159.093 8.92578Z" fill="#333E48"/>
</svg>
