<svg width="50" height="50" viewBox="0 0 50 50" fill="none" xmlns="http://www.w3.org/2000/svg">
<g clip-path="url(#clip0_7119_10908)">
<path d="M30.9584 25.3014C30.963 24.2143 30.5554 23.1256 29.7351 22.3052C28.913 21.4831 27.8216 21.0758 26.7323 21.0824C26.7271 21.0824 26.722 21.082 26.7166 21.082C24.3511 21.082 22.4747 22.9579 22.4747 25.3241C22.4747 27.667 24.3742 29.5659 26.7166 29.5659C29.0828 29.5659 30.959 27.6897 30.959 25.3241C30.959 25.3164 30.9584 25.309 30.9584 25.3014Z" fill="#F26E21"/>
<path d="M21.6862 27.1182C21.0521 27.7529 20.467 28.0009 19.8367 28.0143C18.3011 28.0006 17.1722 26.8634 17.1722 25.2421C17.1722 24.426 17.4812 23.7571 17.9707 23.1857C18.4297 22.7499 19.0211 22.4683 19.7012 22.4683C20.4353 22.4683 21.0066 22.713 21.6588 23.3656V21.4894C21.0067 21.1632 20.4351 21 19.7012 21C18.6642 21.0741 17.6864 21.4931 16.9364 22.1511C16.7202 22.3456 16.5131 22.5602 16.3374 22.806C15.7896 23.516 15.4585 24.3855 15.4585 25.324C15.4585 27.6894 17.3354 29.4841 19.7011 29.4841C19.7126 29.4841 19.724 29.4831 19.7351 29.483C19.751 29.4832 19.7667 29.4841 19.7825 29.4841C20.435 29.4841 21.0066 29.3213 21.7407 28.9949L21.6862 27.1182C21.6586 27.1458 21.7135 27.1714 21.6862 27.1974V27.1182Z" fill="#333E48"/>
<path d="M36.3141 22.1686L34.4666 26.7108L32.3455 21.3262H30.6326L33.9771 29.5657H34.8744L38.3824 21.3262H36.6695L36.3141 22.1686Z" fill="#333E48"/>
<path d="M39.0354 24.9158V29.3213H43.4409H43.5221V28.0156H42.1354H40.6669V26.5475V25.8135H43.4409V24.4262H40.6669V22.7132H43.5221V21.3262H39.0354V24.9158Z" fill="#333E48"/>
<path d="M2.16196 21.3262H-0.122681V29.3213H2.16184C3.38533 29.3213 4.28256 28.9947 5.01677 28.4237C5.91399 27.6894 6.48529 26.5476 6.48529 25.3241C6.48541 22.9577 4.77196 21.3262 2.16196 21.3262ZM4.03809 27.3634C3.54858 27.7711 2.89594 28.0156 1.91692 28.0156H1.42741V22.7131H1.83524C2.81426 22.7131 3.4669 22.8763 3.95652 23.3655C4.52748 23.8547 4.85397 24.5894 4.85397 25.3238C4.93554 26.058 4.60928 26.8734 4.03809 27.3634Z" fill="#333E48"/>
<path d="M8.76934 21.3242H7.21936V29.3192H8.76934V21.3242Z" fill="#333E48"/>
<path d="M12.6854 24.4253C11.7066 24.0991 11.4616 23.8541 11.4616 23.4464C11.4616 22.9569 11.9511 22.5491 12.6037 22.5491C13.0933 22.5491 13.5011 22.7123 13.909 23.2018L14.725 22.1414C14.0722 21.5701 13.2567 21.2441 12.3593 21.2441C10.9721 21.2441 9.82994 22.2232 9.82994 23.528C9.82994 24.6704 10.3199 25.1598 11.7881 25.7308C12.4407 25.9752 12.6855 26.0571 12.849 26.2202C13.1747 26.3831 13.3382 26.7097 13.3382 27.0357C13.3382 27.6884 12.849 28.178 12.1144 28.178C11.3795 28.178 10.7274 27.7702 10.401 27.1175L9.422 28.0965C10.1565 29.1569 11.0539 29.6463 12.196 29.6463C13.8275 29.6463 14.969 28.5859 14.969 27.0357C14.9693 25.6492 14.4802 25.0781 12.6854 24.4253Z" fill="#333E48"/>
<path d="M47.9273 25.9761C49.1505 25.7318 49.8034 24.9156 49.8034 23.6923C49.8034 22.2241 48.7427 21.3262 46.9483 21.3262H44.5823V29.3213H46.1323V26.1394H46.3773L48.5794 29.3213H50.4559L47.9273 25.9761ZM46.6215 24.9971H46.1324V22.55H46.6215C47.6006 22.55 48.1719 22.9577 48.1719 23.7741C48.1719 24.5895 47.6007 24.9971 46.6215 24.9971Z" fill="#333E48"/>
</g>
<defs>
<clipPath id="clip0_7119_10908">
<rect width="50" height="50" fill="white"/>
</clipPath>
</defs>
</svg>
