<svg width="50" height="50" viewBox="0 0 50 50" fill="none" xmlns="http://www.w3.org/2000/svg">
<path d="M25 36.1111C28.0159 33.4127 29.9206 29.4444 29.9206 25C29.9206 20.5556 28.0159 16.6667 25 13.8889C22.381 11.5079 18.8095 10 15 10C6.74603 10 0 16.746 0 25C0 33.254 6.74603 39.9206 15 39.9206C18.8095 40 22.381 38.4921 25 36.1111Z" fill="#FE000B"/>
<path d="M35.0793 10C31.1904 10 27.6983 11.4286 24.9999 13.8889C24.4443 14.3651 23.9682 14.9206 23.492 15.4762H26.5078C26.9047 15.9524 27.3015 16.5079 27.6189 17.0635H22.3015C21.984 17.619 21.6666 18.0952 21.4285 18.6508H28.492C28.7301 19.2063 28.9681 19.6825 29.1269 20.2381H20.8729C20.7142 20.7936 20.5555 21.2698 20.3967 21.8254H29.6031C29.8412 22.8571 29.9205 23.8889 29.9205 25C29.9205 26.6667 29.6824 28.254 29.1269 29.7619H20.8729C21.0316 30.3175 21.2697 30.7936 21.5078 31.3492H28.5713C28.3332 31.9048 28.0158 32.4603 27.6983 32.9365H22.3809C22.6983 33.4921 23.0951 34.0476 23.492 34.5238H26.5078C26.0316 35.0794 25.5555 35.6349 24.9999 36.1111C27.6983 38.4921 31.1904 40 35.0793 40C43.3332 40 49.9999 33.3333 49.9999 25.0794C49.9999 16.746 43.3332 10 35.0793 10Z" fill="#FFA914"/>
<path d="M13.0954 28.7304H11.1906L12.3017 22.9367L9.76202 28.7304H8.09536L7.7779 22.9367L6.66679 28.7304H5.00012L6.42869 21.1113H9.3652L9.52393 25.8732L11.5874 21.1113H14.6033L13.0954 28.7304Z" fill="white"/>
<path d="M33.8892 28.6517C33.3337 28.8105 33.0162 28.8898 32.54 28.8898C31.5876 28.8898 31.1115 28.4136 31.1115 27.5406C31.1115 27.3819 31.1114 27.2232 31.1908 26.9851L31.2702 26.3501L31.3495 25.8739L32.2226 21.1914H34.048L33.8099 22.62H34.7622L34.5241 24.0485H33.5718L33.0956 26.5882C33.0956 26.6676 33.0162 26.8263 33.0162 26.8263C33.0162 27.1438 33.2543 27.3025 33.6511 27.3025C33.8892 27.3025 34.048 27.3025 34.1273 27.2232L33.8892 28.6517Z" fill="white"/>
<path d="M39.3651 22.6197C39.2063 22.5403 39.2063 22.5403 39.127 22.5403C39.0476 22.5403 38.9682 22.5403 38.9682 22.4609C38.8889 22.4609 38.8889 22.4609 38.7302 22.4609C38.0952 22.4609 37.6984 22.699 37.1429 23.4927L37.3016 22.5403H35.6349L34.5238 28.7308H36.4286C37.0635 24.9213 37.3809 24.2863 38.254 24.2863C38.3333 24.2863 38.4127 24.2863 38.4921 24.2863L38.7302 24.3657L39.3651 22.6197Z" fill="white"/>
<path d="M26.5079 24.5244C26.5079 25.3181 26.9841 25.8736 27.9364 26.1911C28.7301 26.5086 28.8095 26.5879 28.8095 26.9054C28.8095 27.3022 28.492 27.4609 27.6983 27.4609C27.1428 27.4609 26.5872 27.3816 26.0317 27.2228L25.7936 28.6514H25.8729L26.1904 28.7308C26.2698 28.7308 26.5079 28.7308 26.6666 28.7308C27.1428 28.8101 27.4602 28.8101 27.6983 28.8101C29.6825 28.8101 30.6348 28.1752 30.6348 26.7467C30.6348 25.8736 30.238 25.3974 29.2856 25.0006C28.492 24.6832 28.4126 24.6038 28.4126 24.3657C28.4126 24.0482 28.7301 23.8895 29.365 23.8895C29.6825 23.8895 30.238 23.8895 30.7142 23.9689L30.9523 22.5403C30.4761 22.4609 29.7618 22.4609 29.2856 22.4609C27.2222 22.4609 26.5079 23.4133 26.5079 24.5244Z" fill="white"/>
<path d="M19.1271 28.732H17.6192V28.0971C17.143 28.5733 16.5081 28.8114 15.6351 28.8114C14.6033 28.8114 13.9684 28.0971 13.9684 27.1447C13.9684 25.6368 15.1589 24.7638 17.2224 24.7638C17.4604 24.7638 17.6985 24.7638 18.016 24.7638C18.0954 24.5257 18.0954 24.4463 18.0954 24.3669C18.0954 23.9701 17.7779 23.8114 16.9049 23.8114C16.3493 23.8114 15.7938 23.8907 15.397 23.9701L15.1589 24.0495H15.0001L15.2382 22.7003C16.1906 22.4622 16.7462 22.3828 17.4604 22.3828C19.0477 22.3828 19.9208 23.0177 19.9208 24.2082C19.9208 24.5257 19.9208 24.7638 19.762 25.478L19.3652 27.7003L19.2858 28.0971L19.2065 28.4146V28.6527L19.1271 28.732ZM17.7779 25.9542C17.5398 25.9542 17.4604 25.9542 17.3811 25.9542C16.3493 25.9542 15.7938 26.2717 15.7938 26.9066C15.7938 27.3034 16.0319 27.5415 16.4287 27.5415C17.2224 27.5415 17.7779 26.9066 17.7779 25.9542Z" fill="white"/>
<path d="M25.2384 28.5733C24.6035 28.732 23.9686 28.8114 23.3337 28.8114C21.2702 28.8114 20.1591 27.859 20.1591 26.0336C20.1591 23.8907 21.5083 22.3828 23.413 22.3828C24.921 22.3828 25.8734 23.2558 25.8734 24.605C25.8734 25.0812 25.794 25.4781 25.6353 26.113H21.9051C21.9051 26.1923 21.9051 26.2717 21.9051 26.3511C21.9051 27.0654 22.4607 27.4622 23.4924 27.4622C24.2067 27.4622 24.7622 27.3828 25.3972 27.0654L25.2384 28.5733ZM24.2861 24.9225C24.2861 24.8431 24.2861 24.6844 24.2861 24.605C24.2861 24.1288 23.9686 23.8114 23.413 23.8114C22.8575 23.8114 22.3813 24.2082 22.2226 24.9225H24.2861Z" fill="white"/>
<path d="M45.1588 25.9523C44.8414 28.0158 43.4128 28.8888 41.508 28.8888C39.4446 28.8888 38.5715 27.619 38.5715 26.0317C38.5715 23.8888 40.0001 22.3809 42.2223 22.3809C44.1271 22.3809 45.1588 23.6507 45.1588 25.1586C45.1588 25.5555 45.1588 25.5555 45.1588 25.9523ZM43.1747 25.1586C43.1747 24.5237 42.9366 23.9682 42.143 23.9682C41.1906 23.9682 40.635 25.0793 40.635 26.111C40.635 26.9047 41.0319 27.4602 41.6668 27.4602C42.0636 27.4602 42.9366 26.9047 43.0953 25.9523C43.1747 25.6348 43.1747 25.3967 43.1747 25.1586Z" fill="white"/>
<path d="M38.6507 26.7466C38.7301 26.191 38.8095 25.5561 38.8095 25.0005C38.8095 24.9212 38.8095 24.8418 38.8095 24.8418C38.7301 25.2386 38.6507 25.6354 38.6507 26.1116C38.5713 26.2704 38.5713 26.5085 38.6507 26.7466Z" fill="white"/>
</svg>
