<svg width="50" height="50" viewBox="0 0 50 50" fill="none" xmlns="http://www.w3.org/2000/svg">
<path d="M36.7386 17.8474C36.1814 17.1863 35.433 16.6366 34.511 16.2099C34.3045 15.6821 34.0198 15.2013 33.6564 14.77C32.2036 13.046 29.4461 12.0967 25.8915 12.0967C24.8272 12.0967 20.6197 12.0522 18.2525 12.0005C17.2922 11.9802 16.446 12.6437 16.2363 13.5794L12.0496 32.4135C11.9145 33.0156 12.0583 33.6372 12.4442 34.1191C12.8298 34.6007 13.405 34.877 14.0219 34.877H15.2685L15.132 35.4909C14.9969 36.093 15.1407 36.7147 15.5265 37.1965C15.9122 37.6781 16.4874 37.9544 17.1045 37.9544H22.1723C23.133 37.9544 23.9665 37.2707 24.1546 36.3288L25.0526 31.8323L29.7966 31.7778L29.8357 31.7734C30.1509 31.7371 31.8132 31.4951 33.5929 30.29C34.608 29.6029 35.4699 28.7281 36.1548 27.6899C36.9899 26.4245 37.5626 24.9124 37.8566 23.1959C38.2366 20.9782 37.8605 19.1787 36.7386 17.8474ZM13.6343 33.1661C13.5786 33.0965 13.4919 32.9495 13.5375 32.7456L17.7242 13.9121C17.776 13.6826 17.9843 13.5187 18.2193 13.5249C20.5953 13.5767 24.8219 13.6213 25.8915 13.6213C28.9439 13.6213 31.3492 14.3981 32.4904 15.7525C33.3093 16.7243 33.5721 18.1067 33.2716 19.8608C32.803 22.5939 31.5867 24.6426 29.6556 25.95C28.2234 26.9198 26.8523 27.144 26.6135 27.1767L21.9004 27.2309C21.1817 27.2309 20.6356 27.6442 20.5096 28.2826L19.5771 32.9529C19.5309 33.1844 19.326 33.3524 19.0899 33.3524H14.0219C13.8145 33.3524 13.6899 33.2355 13.6343 33.1661ZM36.3538 22.9383C35.8854 25.6713 34.6691 27.72 32.738 29.0274C31.3058 29.9972 29.9347 30.2214 29.6959 30.2541L24.9827 30.3083C24.2641 30.3083 23.718 30.7217 23.592 31.36L22.6595 36.0303C22.6133 36.2618 22.4084 36.4298 22.1723 36.4298H17.1045C16.8968 36.4298 16.7725 36.3132 16.7167 36.2435C16.661 36.1739 16.5743 36.0269 16.6199 35.823L16.8304 34.877H19.0901C20.0506 34.877 20.8843 34.1932 21.0724 33.2514L21.9702 28.7547L26.7143 28.7003L26.7533 28.696C27.0685 28.6597 28.7308 28.4177 30.5106 27.2126C31.5256 26.5253 32.3875 25.6505 33.0726 24.6124C33.9075 23.3469 34.4802 21.835 34.7742 20.1183C34.89 19.4423 34.9353 18.8053 34.9109 18.2085C35.1636 18.3997 35.385 18.607 35.5728 18.8297C36.3917 19.8017 36.6545 21.1841 36.3538 22.9383Z" fill="#002F86"/>
</svg>
