<svg width="50" height="50" viewBox="0 0 50 50" fill="none" xmlns="http://www.w3.org/2000/svg">
<path d="M20.0203 17.5605L17.4792 32.4725H21.5433L24.0865 17.5605H20.0203Z" fill="#0023A0"/>
<path d="M14.0716 17.5774L10.0911 27.7469L9.66675 26.2114C8.88175 24.3612 6.6532 21.7041 4.03687 20.0296L7.67654 32.4653L11.9768 32.458L18.3771 17.5742L14.0716 17.5774Z" fill="#0023A0"/>
<path d="M8.12393 18.6431C7.8877 17.7348 7.20304 17.464 6.35322 17.4316H0.0522641L0 17.7285C4.90342 18.918 8.14797 21.7842 9.49429 25.2305L8.12393 18.6431Z" fill="#FF9B00"/>
<path d="M32.3232 20.4177C33.6528 20.3968 34.6166 20.6874 35.365 20.9884L35.7319 21.1609L36.2817 17.9289C35.4769 17.6268 34.2152 17.3027 32.641 17.3027C28.625 17.3027 25.7944 19.3254 25.7725 22.2239C25.7463 24.3657 27.7888 25.5615 29.3317 26.2754C30.9153 27.0071 31.4463 27.4723 31.4389 28.1256C31.4264 29.1238 30.1762 29.5817 29.0087 29.5817C27.3812 29.5817 26.5167 29.3569 25.1819 28.8008L24.6582 28.5625L24.0864 31.9001C25.0376 32.3172 26.7927 32.6757 28.6146 32.6945C32.8867 32.6945 35.6629 30.6959 35.6922 27.5988C35.71 25.9044 34.626 24.6113 32.2773 23.5504C30.8557 22.8584 29.986 22.3985 29.9944 21.7002C29.9944 21.0804 30.7323 20.4177 32.3232 20.4177Z" fill="#0023A0"/>
<path d="M46.7115 17.5762H43.5715C42.5962 17.5762 41.8708 17.8417 41.4422 18.8138L35.4078 32.4798H39.6757C39.6757 32.4798 40.3719 30.6422 40.5297 30.2398C40.997 30.2398 45.1436 30.246 45.7342 30.246C45.8554 30.7666 46.2296 32.4798 46.2296 32.4798H50L46.7115 17.5762ZM41.6994 27.1875C42.0339 26.3315 43.3185 23.02 43.3185 23.02C43.2966 23.0608 43.6499 22.1576 43.86 21.5963L44.1338 22.882C44.1338 22.882 44.9126 26.4423 45.0756 27.1875H41.6994Z" fill="#0023A0"/>
</svg>
